<svg width="500" height="500" xmlns="http://www.w3.org/2000/svg" version="1.1" xml:space="preserve">
 <title>delete_icon</title>

 <g id="Layer_1">
  <title>Layer 1</title>
  <path stroke-width="17" id="svg_2" d="m302.66505,180.54073c0,0 9.29296,-38.4196 0,-51.4341c-9.3039,-13.0145 -13.01452,-21.68354 -33.47215,-27.88978s-13.00357,-4.96937 -27.87887,-4.33452c-14.8753,0.62391 -27.27685,8.66904 -27.27685,13.00356c0,0 -9.29296,0.62391 -13.00357,4.34546c-3.72156,3.72156 -9.91686,21.05963 -9.91686,25.4051s3.09765,33.47212 6.1953,39.66742l-3.68872,1.23687c-3.09765,35.93491 12.39061,40.28038 12.39061,40.28038c5.57139,33.47212 11.15374,19.22075 11.15374,27.88978s-5.58234,5.58234 -5.58234,5.58234s-4.94749,13.62747 -17.33809,18.58589c-12.39061,4.94748 -81.1738,31.58945 -86.76708,37.17178c-5.59329,5.59328 -4.95843,31.61134 -4.95843,31.61134l294.95555,0c0,0 0.6458,-26.01806 -4.94749,-31.61134c-5.60423,-5.59328 -74.38742,-32.2243 -86.77803,-37.17178c-12.39061,-4.95843 -17.33809,-18.58589 -17.33809,-18.58589s-5.58234,3.0867 -5.58234,-5.58234s5.58234,5.58234 11.16468,-27.88978c0,0 15.47731,-4.34546 12.39061,-40.28038l-3.72156,0z" stroke="#e5e5e5" fill="none"/>
  <ellipse stroke-width="17" ry="199.5" rx="199.5" id="svg_5" cy="250" cx="250" stroke="#e5e5e5" fill="none"/>
 </g>
</svg>