<svg width="600" height="600" xmlns="http://www.w3.org/2000/svg" xml:space="preserve" version="1.1">

 <g>
  <title>Layer 1</title>
  <g transform="matrix(7.109 0 0 7.109 -9.28756 -6425.77)" id="text4280_2_">
   <path fill="#FFFFFF" d="m43.50614,904.48953c5.87,0 11.27,1.1 16.2,3.3c5,2.13 9.4,5.1 13.2,8.9c3.8,3.8 6.77,8.2 8.9,13.2c2.2,4.93 3.3,10.33 3.3,16.2c0,5.87 -1.1,11.3 -3.3,16.3c-2.13,5 -5.1,9.4 -8.9,13.2c-3.8,3.8 -8.2,6.8 -13.2,9c-4.93,2.13 -10.33,3.2 -16.2,3.2c-5.87,0 -11.3,-1.07 -16.3,-3.2c-5,-2.2 -9.4,-5.2 -13.2,-9c-3.8,-3.8 -6.8,-8.2 -9,-13.2c-2.13,-5 -3.2,-10.43 -3.2,-16.3s1.07,-11.27 3.2,-16.2c2.2,-5 5.2,-9.4 9,-13.2c3.8,-3.8 8.2,-6.77 13.2,-8.9c5,-2.2 10.43,-3.3 16.3,-3.3" class="st0" id="path7006_2_"/>
   <path d="m43.50614,903.88953c5.53,0 11,1.1 16.4,3.3l2.4,1.2c2.07,1.07 4,2.27 5.8,3.6c1.87,1.27 3.6,2.7 5.2,4.3c0.53,0.53 1.03,1.07 1.5,1.6c0.47,0.53 0.97,1.13 1.5,1.8c0.67,0.93 1.57,2.13 2.7,3.6c4.47,7.07 6.7,14.67 6.7,22.8c0,5.73 -1.1,11.23 -3.3,16.5l-1.2,2.4c-2,4.07 -4.63,7.73 -7.9,11c-0.6,0.53 -1.17,1.07 -1.7,1.6c-0.53,0.53 -1.1,1 -1.7,1.4c-1.27,1.07 -2.5,1.97 -3.7,2.7c-6.93,4.4 -14.5,6.6 -22.7,6.6c-5.93,0 -11.43,-1.1 -16.5,-3.3c-0.27,-0.13 -0.6,-0.27 -1,-0.4c-0.4,-0.2 -0.87,-0.43 -1.4,-0.7c-2.07,-0.93 -4,-2.07 -5.8,-3.4c-1.8,-1.33 -3.53,-2.83 -5.2,-4.5c-0.53,-0.53 -1.07,-1.07 -1.6,-1.6c-0.53,-0.6 -1,-1.2 -1.4,-1.8c-0.53,-0.73 -1.03,-1.4 -1.5,-2c-0.47,-0.6 -0.87,-1.17 -1.2,-1.7c-4.4,-6.87 -6.6,-14.47 -6.6,-22.8c0,-5.93 1.1,-11.4 3.3,-16.4c0.13,-0.27 0.27,-0.6 0.4,-1c0.2,-0.4 0.43,-0.87 0.7,-1.4c1.87,-3.93 4.5,-7.6 7.9,-11c1.47,-1.47 2.6,-2.47 3.4,-3c0.73,-0.53 1.4,-1.03 2,-1.5c0.6,-0.47 1.17,-0.87 1.7,-1.2c6.87,-4.46 14.47,-6.7 22.8,-6.7m0,1.1c-8.07,0 -15.47,2.17 -22.2,6.5c-0.93,0.47 -2.13,1.33 -3.6,2.6c-1.2,0.93 -2.3,1.93 -3.3,3c-3.13,3.13 -5.7,6.7 -7.7,10.7c-0.27,0.47 -0.5,0.9 -0.7,1.3c-0.13,0.33 -0.27,0.67 -0.4,1c-2.13,5.27 -3.2,10.6 -3.2,16c0,8.07 2.17,15.47 6.5,22.2c0.53,0.87 1,1.6 1.4,2.2c0.4,0.6 0.77,1.07 1.1,1.4c0.47,0.6 0.93,1.17 1.4,1.7c0.53,0.53 1.07,1.07 1.6,1.6c3.13,3.13 6.7,5.7 10.7,7.7c0.53,0.27 1,0.5 1.4,0.7c0.4,0.13 0.73,0.27 1,0.4c5.2,2.13 10.53,3.2 16,3.2c8,0 15.37,-2.17 22.1,-6.5c0.73,-0.47 1.37,-0.9 1.9,-1.3c0.6,-0.4 1.17,-0.8 1.7,-1.2c1.2,-1 2.3,-2 3.3,-3c3.33,-3.33 5.93,-6.9 7.8,-10.7c0.13,-0.4 0.27,-0.8 0.4,-1.2c0.2,-0.4 0.4,-0.8 0.6,-1.2c2.2,-5.07 3.3,-10.4 3.3,-16c0,-7.87 -2.17,-15.27 -6.5,-22.2c-0.4,-0.53 -0.83,-1.1 -1.3,-1.7c-0.4,-0.6 -0.83,-1.2 -1.3,-1.8c-0.93,-1.2 -1.93,-2.3 -3,-3.3c-3.33,-3.33 -6.9,-5.93 -10.7,-7.8c-0.4,-0.13 -0.8,-0.27 -1.2,-0.4c-0.4,-0.2 -0.77,-0.4 -1.1,-0.6c-5.33,-2.2 -10.67,-3.3 -16,-3.3" id="path7008_2_"/>
   <path fill="#CC0000" d="m43.50614,916.48953c-8.2,0 -15.2,2.9 -21,8.7c-5.8,5.73 -8.7,12.7 -8.7,20.9c0,8.2 2.9,15.2 8.7,21c5.8,5.8 12.8,8.7 21,8.7c8.2,0 15.17,-2.9 20.9,-8.7c5.8,-5.8 8.7,-12.8 8.7,-21c0,-8.2 -2.9,-15.17 -8.7,-20.9c-5.73,-5.8 -12.7,-8.7 -20.9,-8.7m0,-9.9c5.4,0 10.5,1.03 15.3,3.1c4.8,2.07 9,4.9 12.6,8.5c3.6,3.6 6.43,7.8 8.5,12.6c2.07,4.8 3.1,9.9 3.1,15.3c0,5.47 -1.03,10.6 -3.1,15.4c-2.07,4.8 -4.9,9 -8.5,12.6c-3.6,3.6 -7.8,6.43 -12.6,8.5c-4.8,2 -9.9,3 -15.3,3c-5.47,0 -10.6,-1 -15.4,-3c-4.8,-2.07 -9,-4.9 -12.6,-8.5c-3.6,-3.6 -6.43,-7.8 -8.5,-12.6c-2,-4.8 -3,-9.93 -3,-15.4c0,-5.4 1,-10.5 3,-15.3c2.07,-4.8 4.9,-9 8.5,-12.6c3.6,-3.6 7.8,-6.43 12.6,-8.5c4.8,-2.06 9.93,-3.1 15.4,-3.1" class="st18" id="path7010_2_"/>
   <path d="m41.50614,928.08953l0,5l-14,0l0,7.9c1.67,-1.27 3.53,-1.9 5.6,-1.9c1.2,0 2.43,0.27 3.7,0.8c1,0.53 1.87,1.13 2.6,1.8c0.93,1.13 1.63,2.27 2.1,3.4c0.47,1.33 0.7,3.4 0.7,6.2c0,2.4 -0.2,4.13 -0.6,5.2c-0.33,1.13 -0.87,2.2 -1.6,3.2c-0.67,0.87 -1.67,1.7 -3,2.5c-1.33,0.8 -2.87,1.2 -4.6,1.2c-2.33,0 -4.5,-0.7 -6.5,-2.1c-2.13,-1.27 -3.37,-3.6 -3.7,-7l5,0c0.53,2.73 2.2,4.1 5,4.1c2.47,0 3.9,-0.83 4.3,-2.5c0.4,-1.67 0.6,-3.33 0.6,-5c0,-2.07 -0.33,-3.67 -1,-4.8c-0.73,-1.33 -2.07,-2 -4,-2c-1.93,0 -3.47,0.97 -4.6,2.9l-4.7,0l0,-18.9l18.7,0m19.2,10.1c0,-0.93 -0.13,-1.7 -0.4,-2.3c-0.13,-0.33 -0.3,-0.63 -0.5,-0.9c-0.13,-0.27 -0.27,-0.53 -0.4,-0.8c-0.33,-0.27 -0.63,-0.47 -0.9,-0.6c-0.27,-0.2 -0.5,-0.33 -0.7,-0.4c-0.47,-0.27 -1.13,-0.4 -2,-0.4c-0.93,0 -1.63,0.13 -2.1,0.4c-0.53,0.2 -1.03,0.53 -1.5,1c-0.47,0.47 -0.8,1.03 -1,1.7c-0.27,0.8 -0.4,1.57 -0.4,2.3l0,14.8c0,0.8 0.13,1.57 0.4,2.3c0.2,0.87 0.53,1.43 1,1.7c0.33,0.47 0.83,0.83 1.5,1.1c0.6,0.2 1.3,0.3 2.1,0.3c0.73,0 1.4,-0.1 2,-0.3c0.6,-0.27 1.13,-0.63 1.6,-1.1c0.27,-0.27 0.57,-0.83 0.9,-1.7c0.27,-0.47 0.4,-1.23 0.4,-2.3l0,-14.8m-14.9,-0.3c0,-3.2 1,-5.7 3,-7.5c2.13,-1.73 4.47,-2.6 7,-2.6c2.33,0 4.63,0.87 6.9,2.6c2,1.8 3,4.3 3,7.5l0,15.4c0,3.2 -1,5.7 -3,7.5c-2.13,1.73 -4.43,2.6 -6.9,2.6c-2.6,0 -4.93,-0.87 -7,-2.6c-2,-1.8 -3,-4.3 -3,-7.5l0,-15.4" id="path7012_2_"/>
  </g>
  <ellipse ry="205" rx="193" id="svg_3" cy="300" cx="300" stroke-width="0" stroke="#ffffff" fill="#ffffff"/>
  <ellipse ry="13.5" rx="3" id="svg_4" cy="300" cx="300" stroke-width="0" stroke="#ffffff" fill="#ffffff"/>
 </g>
</svg>